<svg data-v-29081953="" xmlns="http://www.w3.org/2000/svg" viewBox="0 0 300 300"><!----><defs data-v-29081953=""><!----></defs><rect data-v-29081953="" fill="#50A6D8" x="0" y="0" width="300px" height="300px" class="logo-background-square"></rect><defs data-v-29081953=""><!----></defs><g data-v-29081953="" id="c8324b57-21a9-4d40-bd80-b81213b7f2ba" fill="#ffffff" transform="matrix(0.8730210517257102,0,0,0.8730210517257102,74.70128551781792,131.12137542105444)"><path d="M3.36 9.21L3.36 13.05L5.04 13.54L5.04 13.82L0.77 13.82L0.77 13.54L2.03 13.05L2.03 4.51L0.77 4.02L0.77 3.74L5.91 3.74L7.21 3.56L7.42 3.74L7.42 6.50L7.12 6.50L6.25 4.47L3.36 4.47L3.36 8.46L6.20 8.32L6.47 8.42L6.33 9.33L3.36 9.21ZM12.17 6.65L12.17 6.65L12.17 6.65Q12.95 6.65 13.57 6.92L13.57 6.92L13.57 6.92Q14.19 7.18 14.62 7.67L14.62 7.67L14.62 7.67Q15.05 8.15 15.28 8.83L15.28 8.83L15.28 8.83Q15.51 9.50 15.51 10.32L15.51 10.32L15.51 10.32Q15.51 11.14 15.29 11.81L15.29 11.81L15.29 11.81Q15.06 12.49 14.63 12.97L14.63 12.97L14.63 12.97Q14.20 13.46 13.58 13.73L13.58 13.73L13.58 13.73Q12.95 13.99 12.17 13.99L12.17 13.99L12.17 13.99Q11.38 13.99 10.75 13.73L10.75 13.73L10.75 13.73Q10.13 13.46 9.70 12.97L9.70 12.97L9.70 12.97Q9.27 12.49 9.04 11.82L9.04 11.82L9.04 11.82Q8.82 11.14 8.82 10.32L8.82 10.32L8.82 10.32Q8.82 9.50 9.05 8.83L9.05 8.83L9.05 8.83Q9.28 8.15 9.71 7.67L9.71 7.67L9.71 7.67Q10.14 7.18 10.76 6.92L10.76 6.92L10.76 6.92Q11.38 6.65 12.17 6.65ZM10.68 8.10L10.68 8.10L10.68 8.10Q10.15 8.96 10.15 10.32L10.15 10.32L10.15 10.32Q10.15 11.00 10.28 11.56L10.28 11.56L10.28 11.56Q10.42 12.13 10.67 12.53L10.67 12.53L10.67 12.53Q10.93 12.94 11.31 13.17L11.31 13.17L11.31 13.17Q11.68 13.39 12.17 13.39L12.17 13.39L12.17 13.39Q12.65 13.39 13.04 13.17L13.04 13.17L13.04 13.17Q13.42 12.94 13.68 12.53L13.68 12.53L13.68 12.53Q13.95 12.13 14.09 11.56L14.09 11.56L14.09 11.56Q14.23 11.00 14.23 10.32L14.23 10.32L14.23 10.32Q14.23 9.65 14.09 9.09L14.09 9.09L14.09 9.09Q13.95 8.52 13.68 8.12L13.68 8.12L13.68 8.12Q13.42 7.71 13.04 7.48L13.04 7.48L13.04 7.48Q12.65 7.25 12.17 7.25L12.17 7.25L12.17 7.25Q11.20 7.25 10.68 8.10ZM19.15 13.05L20.76 13.54L20.76 13.82L16.63 13.82L16.63 13.54L17.89 13.05L17.89 7.92L16.63 7.42L16.63 7.14L19.01 6.65L19.15 6.79L19.15 7.64L19.15 7.64Q20.19 6.65 21.88 6.65L21.88 6.65L21.88 8.17L21.60 8.26L20.60 7.72L20.60 7.72Q20.30 7.72 19.90 7.85L19.90 7.85L19.90 7.85Q19.50 7.98 19.15 8.24L19.15 8.24L19.15 13.05ZM25.09 13.05L26.28 13.54L26.28 13.82L22.58 13.82L22.58 13.54L23.84 13.05L23.84 7.92L22.58 7.42L22.58 7.14L24.96 6.65L25.09 6.79L25.09 7.61L25.09 7.61Q25.57 7.16 26.19 6.90L26.19 6.90L26.19 6.90Q26.80 6.65 27.43 6.65L27.43 6.65L27.43 6.65Q28.05 6.65 28.55 6.94L28.55 6.94L28.55 6.94Q29.05 7.23 29.30 7.81L29.30 7.81L29.30 7.81Q29.77 7.27 30.45 6.96L30.45 6.96L30.45 6.96Q31.13 6.65 31.83 6.65L31.83 6.65L31.83 6.65Q32.24 6.65 32.60 6.78L32.60 6.78L32.60 6.78Q32.96 6.91 33.25 7.17L33.25 7.17L33.25 7.17Q33.54 7.44 33.71 7.88L33.71 7.88L33.71 7.88Q33.89 8.31 33.89 8.88L33.89 8.88L33.89 13.05L35.15 13.54L35.15 13.82L31.44 13.82L31.44 13.54L32.63 13.05L32.63 9.30L32.63 9.30Q32.63 8.32 32.29 7.93L32.29 7.93L32.29 7.93Q31.95 7.55 31.14 7.55L31.14 7.55L31.14 7.55Q30.13 7.55 29.42 8.21L29.42 8.21L29.42 8.21Q29.49 8.55 29.49 8.88L29.49 8.88L29.49 13.05L30.68 13.54L30.68 13.82L27.04 13.82L27.04 13.54L28.23 13.05L28.23 9.30L28.23 9.30Q28.23 8.32 27.89 7.93L27.89 7.93L27.89 7.93Q27.56 7.55 26.75 7.55L26.75 7.55L26.75 7.55Q25.78 7.55 25.09 8.16L25.09 8.16L25.09 13.05ZM41.31 12.87L42.57 13.22L42.57 13.47L41.09 13.93L41.09 13.93Q40.65 14.03 40.35 13.83L40.35 13.83L40.35 13.83Q40.05 13.64 40.05 13.17L40.05 13.17L40.05 13.17Q39.16 13.99 37.97 13.99L37.97 13.99L37.97 13.99Q36.98 13.99 36.48 13.48L36.48 13.48L36.48 13.48Q35.99 12.97 35.99 12.20L35.99 12.20L35.99 12.20Q35.99 11.61 36.25 11.17L36.25 11.17L36.25 11.17Q36.51 10.72 36.91 10.45L36.91 10.45L36.91 10.45Q37.32 10.19 37.88 10.01L37.88 10.01L37.88 10.01Q38.44 9.83 38.96 9.76L38.96 9.76L38.96 9.76Q39.48 9.69 40.05 9.68L40.05 9.68L40.05 9.02L40.05 9.02Q40.05 8.07 39.75 7.69L39.75 7.69L39.75 7.69Q39.45 7.31 38.75 7.31L38.75 7.31L38.75 7.31Q38.23 7.31 37.52 7.48L37.52 7.48L36.79 9.06L36.46 9.06L36.46 7.12L36.46 7.12Q37.07 6.90 37.75 6.77L37.75 6.77L37.75 6.77Q38.44 6.65 38.96 6.65L38.96 6.65L38.96 6.65Q40.09 6.65 40.70 7.11L40.70 7.11L40.70 7.11Q41.31 7.56 41.31 8.60L41.31 8.60L41.31 12.87ZM38.54 13.19L38.54 13.19L38.54 13.19Q38.93 13.19 39.34 13.01L39.34 13.01L39.34 13.01Q39.75 12.82 40.05 12.49L40.05 12.49L40.05 10.24L40.05 10.24Q38.68 10.30 37.97 10.80L37.97 10.80L37.97 10.80Q37.25 11.29 37.25 12.06L37.25 12.06L37.25 12.06Q37.25 12.65 37.63 12.92L37.63 12.92L37.63 12.92Q38.00 13.19 38.54 13.19ZM55.82 9.39L54.72 8.89L54.72 8.61L57.53 8.61L57.53 8.89L56.58 9.34L56.58 9.34Q56.03 10.81 55.30 11.85L55.30 11.85L56.41 13.06L57.85 13.54L57.85 13.82L55.23 13.82L54.37 12.89L54.37 12.89Q53.00 14.10 51.19 14.10L51.19 14.10L51.19 14.10Q50.60 14.10 50.08 13.95L50.08 13.95L50.08 13.95Q49.56 13.80 49.15 13.51L49.15 13.51L49.15 13.51Q48.74 13.23 48.50 12.75L48.50 12.75L48.50 12.75Q48.26 12.28 48.26 11.68L48.26 11.68L48.26 11.68Q48.26 11.32 48.32 11.03L48.32 11.03L48.32 11.03Q48.37 10.75 48.51 10.49L48.51 10.49L48.51 10.49Q48.64 10.24 48.80 10.04L48.80 10.04L48.80 10.04Q48.96 9.84 49.25 9.62L49.25 9.62L49.25 9.62Q49.55 9.39 49.82 9.21L49.82 9.21L49.82 9.21Q50.10 9.03 50.56 8.76L50.56 8.76L49.90 8.03L49.90 8.03Q49.19 7.23 49.19 6.15L49.19 6.15L49.19 6.15Q49.19 5.66 49.38 5.20L49.38 5.20L49.38 5.20Q49.57 4.74 49.91 4.38L49.91 4.38L49.91 4.38Q50.24 4.02 50.75 3.80L50.75 3.80L50.75 3.80Q51.26 3.59 51.85 3.59L51.85 3.59L51.85 3.59Q53.03 3.59 53.72 4.25L53.72 4.25L53.72 4.25Q54.40 4.91 54.40 5.83L54.40 5.83L54.40 5.83Q54.40 6.67 53.93 7.27L53.93 7.27L53.93 7.27Q53.45 7.87 52.29 8.56L52.29 8.56L54.83 11.33L54.83 11.33Q55.36 10.54 55.82 9.39L55.82 9.39ZM51.65 13.29L51.65 13.29L51.65 13.29Q52.96 13.29 53.92 12.41L53.92 12.41L51.08 9.32L51.08 9.32Q49.78 10.27 49.78 11.50L49.78 11.50L49.78 11.50Q49.78 12.46 50.27 12.87L50.27 12.87L50.27 12.87Q50.76 13.29 51.65 13.29ZM50.42 5.78L50.42 5.78L50.42 5.78Q50.42 6.51 50.84 6.96L50.84 6.96L51.78 8.00L51.78 8.00Q52.64 7.43 52.94 6.94L52.94 6.94L52.94 6.94Q53.25 6.44 53.25 5.86L53.25 5.86L53.25 5.86Q53.25 5.11 52.88 4.68L52.88 4.68L52.88 4.68Q52.51 4.26 51.92 4.26L51.92 4.26L51.92 4.26Q51.26 4.26 50.84 4.72L50.84 4.72L50.84 4.72Q50.42 5.19 50.42 5.78ZM72.27 13.82L70.16 13.82L68.00 9.60L68.00 9.60Q67.81 9.63 67.60 9.64L67.60 9.64L67.60 9.64Q67.39 9.65 67.17 9.65L67.17 9.65L67.17 9.65Q66.92 9.65 66.65 9.63L66.65 9.63L66.65 9.63Q66.39 9.61 66.11 9.58L66.11 9.58L66.11 13.05L67.66 13.54L67.66 13.82L63.59 13.82L63.59 13.54L64.85 13.05L64.85 4.51L63.59 4.02L63.59 3.74L67.44 3.74L67.44 3.74Q68.33 3.74 69.02 3.94L69.02 3.94L69.02 3.94Q69.71 4.14 70.19 4.51L70.19 4.51L70.19 4.51Q70.66 4.88 70.91 5.40L70.91 5.40L70.91 5.40Q71.16 5.91 71.16 6.54L71.16 6.54L71.16 6.54Q71.16 7.46 70.68 8.18L70.68 8.18L70.68 8.18Q70.21 8.89 69.28 9.27L69.28 9.27L71.26 13.15L72.27 13.54L72.27 13.82ZM67.64 4.46L67.64 4.46L66.11 4.46L66.11 8.85L66.11 8.85Q66.39 8.89 66.64 8.90L66.64 8.90L66.64 8.90Q66.89 8.92 67.13 8.92L67.13 8.92L67.13 8.92Q69.77 8.92 69.77 6.65L69.77 6.65L69.77 6.65Q69.77 5.55 69.22 5.00L69.22 5.00L69.22 5.00Q68.67 4.46 67.64 4.46ZM79.36 10.17L79.16 10.36L74.74 10.36L74.74 10.36Q74.74 11.13 74.96 11.70L74.96 11.70L74.96 11.70Q75.17 12.26 75.53 12.58L75.53 12.58L75.53 12.58Q75.89 12.91 76.33 13.06L76.33 13.06L76.33 13.06Q76.76 13.21 77.27 13.21L77.27 13.21L77.27 13.21Q77.98 13.21 78.80 12.73L78.80 12.73L79.01 13.14L79.01 13.14Q78.44 13.64 77.86 13.82L77.86 13.82L77.86 13.82Q77.29 13.99 76.56 13.99L76.56 13.99L76.56 13.99Q75.92 13.99 75.33 13.72L75.33 13.72L75.33 13.72Q74.74 13.45 74.30 12.98L74.30 12.98L74.30 12.98Q73.86 12.50 73.59 11.81L73.59 11.81L73.59 11.81Q73.32 11.12 73.32 10.32L73.32 10.32L73.32 10.32Q73.32 9.56 73.52 8.94L73.52 8.94L73.52 8.94Q73.71 8.31 74.03 7.90L74.03 7.90L74.03 7.90Q74.35 7.48 74.78 7.19L74.78 7.19L74.78 7.19Q75.21 6.90 75.66 6.78L75.66 6.78L75.66 6.78Q76.10 6.65 76.57 6.65L76.57 6.65L76.57 6.65Q77.15 6.65 77.65 6.87L77.65 6.87L77.65 6.87Q78.14 7.08 78.53 7.50L78.53 7.50L78.53 7.50Q78.91 7.92 79.14 8.61L79.14 8.61L79.14 8.61Q79.36 9.29 79.36 10.17L79.36 10.17ZM76.60 7.31L76.60 7.31L76.60 7.31Q75.81 7.31 75.34 7.94L75.34 7.94L75.34 7.94Q74.87 8.56 74.76 9.64L74.76 9.64L78.03 9.64L78.03 9.64Q78.03 8.54 77.66 7.93L77.66 7.93L77.66 7.93Q77.29 7.31 76.60 7.31ZM85.17 7.36L83.00 7.77L83.00 13.05L84.75 13.54L84.75 13.82L80.48 13.82L80.48 13.54L81.74 13.05L81.74 7.80L80.41 7.42L80.41 7.14L81.74 6.86L81.74 6.17L81.74 6.17Q81.74 5.43 82.00 4.85L82.00 4.85L82.00 4.85Q82.26 4.26 82.69 3.90L82.69 3.90L82.69 3.90Q83.13 3.53 83.67 3.34L83.67 3.34L83.67 3.34Q84.21 3.15 84.81 3.15L84.81 3.15L84.81 3.15Q85.02 3.15 85.37 3.21L85.37 3.21L85.37 3.21Q85.73 3.26 85.91 3.34L85.91 3.34L85.91 5.42L85.63 5.42L84.66 3.79L84.66 3.79Q84.07 3.79 83.69 4.09L83.69 4.09L83.69 4.09Q83.31 4.39 83.16 4.87L83.16 4.87L83.16 4.87Q83.00 5.35 83.00 6.02L83.00 6.02L83.00 6.86L84.93 6.86L85.17 6.95L85.17 7.36ZM89.40 6.65L89.40 6.65L89.40 6.65Q90.18 6.65 90.80 6.92L90.80 6.92L90.80 6.92Q91.42 7.18 91.85 7.67L91.85 7.67L91.85 7.67Q92.29 8.15 92.51 8.83L92.51 8.83L92.51 8.83Q92.74 9.50 92.74 10.32L92.74 10.32L92.74 10.32Q92.74 11.14 92.52 11.81L92.52 11.81L92.52 11.81Q92.29 12.49 91.86 12.97L91.86 12.97L91.86 12.97Q91.43 13.46 90.81 13.73L90.81 13.73L90.81 13.73Q90.19 13.99 89.40 13.99L89.40 13.99L89.40 13.99Q88.61 13.99 87.99 13.73L87.99 13.73L87.99 13.73Q87.36 13.46 86.93 12.97L86.93 12.97L86.93 12.97Q86.50 12.49 86.28 11.82L86.28 11.82L86.28 11.82Q86.05 11.14 86.05 10.32L86.05 10.32L86.05 10.32Q86.05 9.50 86.28 8.83L86.28 8.83L86.28 8.83Q86.51 8.15 86.94 7.67L86.94 7.67L86.94 7.67Q87.37 7.18 87.99 6.92L87.99 6.92L87.99 6.92Q88.61 6.65 89.40 6.65ZM87.91 8.10L87.91 8.10L87.91 8.10Q87.38 8.96 87.38 10.32L87.38 10.32L87.38 10.32Q87.38 11.00 87.52 11.56L87.52 11.56L87.52 11.56Q87.65 12.13 87.91 12.53L87.91 12.53L87.91 12.53Q88.16 12.94 88.54 13.17L88.54 13.17L88.54 13.17Q88.92 13.39 89.40 13.39L89.40 13.39L89.40 13.39Q89.89 13.39 90.27 13.17L90.27 13.17L90.27 13.17Q90.65 12.94 90.91 12.53L90.91 12.53L90.91 12.53Q91.18 12.13 91.32 11.56L91.32 11.56L91.32 11.56Q91.46 11.00 91.46 10.32L91.46 10.32L91.46 10.32Q91.46 9.65 91.32 9.09L91.32 9.09L91.32 9.09Q91.18 8.52 90.91 8.12L90.91 8.12L90.91 8.12Q90.65 7.71 90.27 7.48L90.27 7.48L90.27 7.48Q89.89 7.25 89.40 7.25L89.40 7.25L89.40 7.25Q88.43 7.25 87.91 8.10ZM96.38 13.05L97.99 13.54L97.99 13.82L93.86 13.82L93.86 13.54L95.12 13.05L95.12 7.92L93.86 7.42L93.86 7.14L96.24 6.65L96.38 6.79L96.38 7.64L96.38 7.64Q97.42 6.65 99.11 6.65L99.11 6.65L99.11 8.17L98.83 8.26L97.84 7.72L97.84 7.72Q97.53 7.72 97.13 7.85L97.13 7.85L97.13 7.85Q96.74 7.98 96.38 8.24L96.38 8.24L96.38 13.05ZM102.33 13.05L103.52 13.54L103.52 13.82L99.81 13.82L99.81 13.54L101.07 13.05L101.07 7.92L99.81 7.42L99.81 7.14L102.19 6.65L102.33 6.79L102.33 7.61L102.33 7.61Q102.80 7.16 103.42 6.90L103.42 6.90L103.42 6.90Q104.04 6.65 104.67 6.65L104.67 6.65L104.67 6.65Q105.28 6.65 105.78 6.94L105.78 6.94L105.78 6.94Q106.28 7.23 106.53 7.81L106.53 7.81L106.53 7.81Q107.00 7.27 107.68 6.96L107.68 6.96L107.68 6.96Q108.36 6.65 109.06 6.65L109.06 6.65L109.06 6.65Q109.47 6.65 109.83 6.78L109.83 6.78L109.83 6.78Q110.20 6.91 110.49 7.17L110.49 7.17L110.49 7.17Q110.78 7.44 110.95 7.88L110.95 7.88L110.95 7.88Q111.12 8.31 111.12 8.88L111.12 8.88L111.12 13.05L112.38 13.54L112.38 13.82L108.67 13.82L108.67 13.54L109.86 13.05L109.86 9.30L109.86 9.30Q109.86 8.32 109.52 7.93L109.52 7.93L109.52 7.93Q109.18 7.55 108.38 7.55L108.38 7.55L108.38 7.55Q107.36 7.55 106.65 8.21L106.65 8.21L106.65 8.21Q106.72 8.55 106.72 8.88L106.72 8.88L106.72 13.05L107.91 13.54L107.91 13.82L104.28 13.82L104.28 13.54L105.46 13.05L105.46 9.30L105.46 9.30Q105.46 8.32 105.13 7.93L105.13 7.93L105.13 7.93Q104.79 7.55 103.98 7.55L103.98 7.55L103.98 7.55Q103.01 7.55 102.33 8.16L102.33 8.16L102.33 13.05ZM118.54 12.87L119.81 13.22L119.81 13.47L118.32 13.93L118.32 13.93Q117.89 14.03 117.58 13.83L117.58 13.83L117.58 13.83Q117.28 13.64 117.28 13.17L117.28 13.17L117.28 13.17Q116.40 13.99 115.20 13.99L115.20 13.99L115.20 13.99Q114.21 13.99 113.72 13.48L113.72 13.48L113.72 13.48Q113.22 12.97 113.22 12.20L113.22 12.20L113.22 12.20Q113.22 11.61 113.48 11.17L113.48 11.17L113.48 11.17Q113.74 10.72 114.15 10.45L114.15 10.45L114.15 10.45Q114.55 10.19 115.11 10.01L115.11 10.01L115.11 10.01Q115.67 9.83 116.19 9.76L116.19 9.76L116.19 9.76Q116.71 9.69 117.28 9.68L117.28 9.68L117.28 9.02L117.28 9.02Q117.28 8.07 116.98 7.69L116.98 7.69L116.98 7.69Q116.68 7.31 115.99 7.31L115.99 7.31L115.99 7.31Q115.46 7.31 114.75 7.48L114.75 7.48L114.02 9.06L113.69 9.06L113.69 7.12L113.69 7.12Q114.30 6.90 114.99 6.77L114.99 6.77L114.99 6.77Q115.67 6.65 116.19 6.65L116.19 6.65L116.19 6.65Q117.32 6.65 117.93 7.11L117.93 7.11L117.93 7.11Q118.54 7.56 118.54 8.60L118.54 8.60L118.54 12.87ZM115.77 13.19L115.77 13.19L115.77 13.19Q116.16 13.19 116.57 13.01L116.57 13.01L116.57 13.01Q116.98 12.82 117.28 12.49L117.28 12.49L117.28 10.24L117.28 10.24Q115.92 10.30 115.20 10.80L115.20 10.80L115.20 10.80Q114.48 11.29 114.48 12.06L114.48 12.06L114.48 12.06Q114.48 12.65 114.86 12.92L114.86 12.92L114.86 12.92Q115.23 13.19 115.77 13.19ZM120.85 11.51L121.20 11.51L121.93 13.06L121.93 13.06Q122.02 13.12 122.15 13.16L122.15 13.16L122.15 13.16Q122.28 13.21 122.43 13.24L122.43 13.24L122.43 13.24Q122.58 13.28 122.74 13.30L122.74 13.30L122.74 13.30Q122.90 13.32 123.05 13.32L123.05 13.32L123.05 13.32Q123.40 13.32 123.68 13.24L123.68 13.24L123.68 13.24Q123.96 13.17 124.17 13.04L124.17 13.04L124.17 13.04Q124.37 12.91 124.48 12.71L124.48 12.71L124.48 12.71Q124.59 12.52 124.59 12.27L124.59 12.27L124.59 12.27Q124.59 11.95 124.33 11.66L124.33 11.66L124.33 11.66Q124.07 11.37 123.59 11.09L123.59 11.09L122.86 10.68L122.86 10.68Q122.47 10.48 122.13 10.26L122.13 10.26L122.13 10.26Q121.79 10.04 121.54 9.78L121.54 9.78L121.54 9.78Q121.28 9.52 121.14 9.21L121.14 9.21L121.14 9.21Q120.99 8.89 120.99 8.50L120.99 8.50L120.99 8.50Q120.99 8.03 121.17 7.68L121.17 7.68L121.17 7.68Q121.36 7.33 121.70 7.11L121.70 7.11L121.70 7.11Q122.04 6.88 122.52 6.76L122.52 6.76L122.52 6.76Q123.01 6.65 123.59 6.65L123.59 6.65L123.59 6.65Q124.50 6.65 125.40 6.95L125.40 6.95L125.37 8.92L125.09 8.92L124.37 7.31L124.37 7.31Q124.11 7.28 123.92 7.26L123.92 7.26L123.92 7.26Q123.73 7.24 123.61 7.24L123.61 7.24L123.61 7.24Q123.24 7.24 122.97 7.32L122.97 7.32L122.97 7.32Q122.70 7.41 122.52 7.55L122.52 7.55L122.52 7.55Q122.35 7.69 122.26 7.87L122.26 7.87L122.26 7.87Q122.18 8.05 122.18 8.24L122.18 8.24L122.18 8.24Q122.18 8.46 122.26 8.64L122.26 8.64L122.26 8.64Q122.35 8.83 122.52 8.99L122.52 8.99L122.52 8.99Q122.68 9.15 122.94 9.31L122.94 9.31L122.94 9.31Q123.19 9.47 123.53 9.65L123.53 9.65L123.53 9.65Q124.00 9.91 124.31 10.08L124.31 10.08L124.31 10.08Q124.63 10.24 124.76 10.34L124.76 10.34L124.76 10.34Q125.84 11.05 125.84 11.99L125.84 11.99L125.84 11.99Q125.84 12.50 125.59 12.88L125.59 12.88L125.59 12.88Q125.35 13.25 124.96 13.51L124.96 13.51L124.96 13.51Q124.56 13.77 124.07 13.89L124.07 13.89L124.07 13.89Q123.58 14.02 123.08 14.02L123.08 14.02L123.08 14.02Q122.82 14.02 122.52 13.99L122.52 13.99L122.52 13.99Q122.22 13.95 121.92 13.89L121.92 13.89L121.92 13.89Q121.62 13.83 121.34 13.74L121.34 13.74L121.34 13.74Q121.06 13.66 120.85 13.56L120.85 13.56L120.85 11.51ZM139.86 10.80L139.87 13.57L139.87 13.57Q138.67 13.99 137.42 13.99L137.42 13.99L137.42 13.99Q136.58 13.99 135.81 13.81L135.81 13.81L135.81 13.81Q135.04 13.62 134.36 13.21L134.36 13.21L134.36 13.21Q133.69 12.80 133.19 12.21L133.19 12.21L133.19 12.21Q132.70 11.62 132.42 10.77L132.42 10.77L132.42 10.77Q132.13 9.92 132.13 8.89L132.13 8.89L132.13 8.89Q132.13 7.61 132.55 6.57L132.55 6.57L132.55 6.57Q132.97 5.54 133.69 4.88L133.69 4.88L133.69 4.88Q134.41 4.22 135.37 3.87L135.37 3.87L135.37 3.87Q136.32 3.52 137.42 3.52L137.42 3.52L137.42 3.52Q138.58 3.52 139.77 3.90L139.77 3.90L139.76 6.50L139.48 6.50L138.63 4.55L138.63 4.55Q138.05 4.30 137.12 4.30L137.12 4.30L137.12 4.30Q136.57 4.30 136.08 4.44L136.08 4.44L136.08 4.44Q135.60 4.59 135.15 4.92L135.15 4.92L135.15 4.92Q134.70 5.26 134.38 5.77L134.38 5.77L134.38 5.77Q134.05 6.28 133.86 7.05L133.86 7.05L133.86 7.05Q133.67 7.83 133.67 8.81L133.67 8.81L133.67 8.81Q133.67 9.85 133.97 10.70L133.97 10.70L133.97 10.70Q134.28 11.55 134.80 12.10L134.80 12.10L134.80 12.10Q135.33 12.65 136.02 12.95L136.02 12.95L136.02 12.95Q136.72 13.25 137.50 13.25L137.50 13.25L137.50 13.25Q138.20 13.25 138.82 13.05L138.82 13.05L139.58 10.80L139.86 10.80ZM144.48 6.65L144.48 6.65L144.48 6.65Q145.26 6.65 145.89 6.92L145.89 6.92L145.89 6.92Q146.51 7.18 146.94 7.67L146.94 7.67L146.94 7.67Q147.37 8.15 147.60 8.83L147.60 8.83L147.60 8.83Q147.83 9.50 147.83 10.32L147.83 10.32L147.83 10.32Q147.83 11.14 147.60 11.81L147.60 11.81L147.60 11.81Q147.38 12.49 146.95 12.97L146.95 12.97L146.95 12.97Q146.51 13.46 145.89 13.73L145.89 13.73L145.89 13.73Q145.27 13.99 144.48 13.99L144.48 13.99L144.48 13.99Q143.69 13.99 143.07 13.73L143.07 13.73L143.07 13.73Q142.45 13.46 142.02 12.97L142.02 12.97L142.02 12.97Q141.59 12.49 141.36 11.82L141.36 11.82L141.36 11.82Q141.13 11.14 141.13 10.32L141.13 10.32L141.13 10.32Q141.13 9.50 141.36 8.83L141.36 8.83L141.36 8.83Q141.59 8.15 142.02 7.67L142.02 7.67L142.02 7.67Q142.45 7.18 143.08 6.92L143.08 6.92L143.08 6.92Q143.70 6.65 144.48 6.65ZM142.99 8.10L142.99 8.10L142.99 8.10Q142.47 8.96 142.47 10.32L142.47 10.32L142.47 10.32Q142.47 11.00 142.60 11.56L142.60 11.56L142.60 11.56Q142.73 12.13 142.99 12.53L142.99 12.53L142.99 12.53Q143.25 12.94 143.62 13.17L143.62 13.17L143.62 13.17Q144.00 13.39 144.48 13.39L144.48 13.39L144.48 13.39Q144.97 13.39 145.35 13.17L145.35 13.17L145.35 13.17Q145.74 12.94 146.00 12.53L146.00 12.53L146.00 12.53Q146.26 12.13 146.40 11.56L146.40 11.56L146.40 11.56Q146.54 11.00 146.54 10.32L146.54 10.32L146.54 10.32Q146.54 9.65 146.40 9.09L146.40 9.09L146.40 9.09Q146.26 8.52 146.00 8.12L146.00 8.12L146.00 8.12Q145.74 7.71 145.35 7.48L145.35 7.48L145.35 7.48Q144.97 7.25 144.48 7.25L144.48 7.25L144.48 7.25Q143.51 7.25 142.99 8.10ZM151.46 13.05L152.65 13.54L152.65 13.82L148.95 13.82L148.95 13.54L150.21 13.05L150.21 7.92L148.95 7.42L148.95 7.14L151.33 6.65L151.46 6.79L151.46 7.62L151.46 7.62Q151.95 7.17 152.60 6.91L152.60 6.91L152.60 6.91Q153.25 6.65 153.88 6.65L153.88 6.65L153.88 6.65Q154.79 6.65 155.40 7.21L155.40 7.21L155.40 7.21Q156.00 7.77 156.00 8.88L156.00 8.88L156.00 13.05L157.26 13.54L157.26 13.82L153.55 13.82L153.55 13.54L154.75 13.05L154.75 9.30L154.75 9.30Q154.75 8.31 154.39 7.93L154.39 7.93L154.39 7.93Q154.04 7.55 153.19 7.55L153.19 7.55L153.19 7.55Q152.17 7.55 151.46 8.16L151.46 8.16L151.46 13.05ZM158.31 11.51L158.66 11.51L159.39 13.06L159.39 13.06Q159.48 13.12 159.61 13.16L159.61 13.16L159.61 13.16Q159.74 13.21 159.89 13.24L159.89 13.24L159.89 13.24Q160.04 13.28 160.20 13.30L160.20 13.30L160.20 13.30Q160.36 13.32 160.51 13.32L160.51 13.32L160.51 13.32Q160.86 13.32 161.14 13.24L161.14 13.24L161.14 13.24Q161.42 13.17 161.63 13.04L161.63 13.04L161.63 13.04Q161.83 12.91 161.94 12.71L161.94 12.71L161.94 12.71Q162.05 12.52 162.05 12.27L162.05 12.27L162.05 12.27Q162.05 11.95 161.79 11.66L161.79 11.66L161.79 11.66Q161.53 11.37 161.05 11.09L161.05 11.09L160.32 10.68L160.32 10.68Q159.93 10.48 159.59 10.26L159.59 10.26L159.59 10.26Q159.25 10.04 159.00 9.78L159.00 9.78L159.00 9.78Q158.74 9.52 158.60 9.21L158.60 9.21L158.60 9.21Q158.45 8.89 158.45 8.50L158.45 8.50L158.45 8.50Q158.45 8.03 158.63 7.68L158.63 7.68L158.63 7.68Q158.82 7.33 159.16 7.11L159.16 7.11L159.16 7.11Q159.50 6.88 159.98 6.76L159.98 6.76L159.98 6.76Q160.47 6.65 161.05 6.65L161.05 6.65L161.05 6.65Q161.96 6.65 162.86 6.95L162.86 6.95L162.83 8.92L162.55 8.92L161.83 7.31L161.83 7.31Q161.57 7.28 161.38 7.26L161.38 7.26L161.38 7.26Q161.19 7.24 161.07 7.24L161.07 7.24L161.07 7.24Q160.70 7.24 160.43 7.32L160.43 7.32L160.43 7.32Q160.16 7.41 159.98 7.55L159.98 7.55L159.98 7.55Q159.81 7.69 159.73 7.87L159.73 7.87L159.73 7.87Q159.64 8.05 159.64 8.24L159.64 8.24L159.64 8.24Q159.64 8.46 159.73 8.64L159.73 8.64L159.73 8.64Q159.81 8.83 159.98 8.99L159.98 8.99L159.98 8.99Q160.15 9.15 160.40 9.31L160.40 9.31L160.40 9.31Q160.65 9.47 160.99 9.65L160.99 9.65L160.99 9.65Q161.46 9.91 161.78 10.08L161.78 10.08L161.78 10.08Q162.09 10.24 162.22 10.34L162.22 10.34L162.22 10.34Q163.30 11.05 163.30 11.99L163.30 11.99L163.30 11.99Q163.30 12.50 163.05 12.88L163.05 12.88L163.05 12.88Q162.81 13.25 162.42 13.51L162.42 13.51L162.42 13.51Q162.03 13.77 161.53 13.89L161.53 13.89L161.53 13.89Q161.04 14.02 160.54 14.02L160.54 14.02L160.54 14.02Q160.28 14.02 159.98 13.99L159.98 13.99L159.98 13.99Q159.68 13.95 159.38 13.89L159.38 13.89L159.38 13.89Q159.08 13.83 158.80 13.74L158.80 13.74L158.80 13.74Q158.53 13.66 158.31 13.56L158.31 13.56L158.31 11.51ZM168.96 7.36L166.72 7.77L166.72 11.58L166.72 11.58Q166.72 12.04 166.79 12.36L166.79 12.36L166.79 12.36Q166.87 12.67 167.01 12.83L167.01 12.83L167.01 12.83Q167.15 12.98 167.30 13.04L167.30 13.04L167.30 13.04Q167.46 13.10 167.68 13.10L167.68 13.10L167.68 13.10Q168.09 13.10 168.37 13.03L168.37 13.03L168.37 13.03Q168.64 12.95 168.96 12.76L168.96 12.76L169.18 13.19L169.18 13.19Q168.21 13.99 167.06 13.99L167.06 13.99L167.06 13.99Q166.39 13.99 165.93 13.46L165.93 13.46L165.93 13.46Q165.46 12.93 165.46 11.98L165.46 11.98L165.46 7.77L164.19 7.42L164.19 7.14L165.52 6.86L166.02 4.98L166.72 4.98L166.72 6.86L168.72 6.86L168.96 6.95L168.96 7.36ZM172.70 13.05L174.32 13.54L174.32 13.82L170.19 13.82L170.19 13.54L171.45 13.05L171.45 7.92L170.19 7.42L170.19 7.14L172.57 6.65L172.70 6.79L172.70 7.64L172.70 7.64Q173.74 6.65 175.44 6.65L175.44 6.65L175.44 8.17L175.16 8.26L174.16 7.72L174.16 7.72Q173.85 7.72 173.46 7.85L173.46 7.85L173.46 7.85Q173.06 7.98 172.70 8.24L172.70 8.24L172.70 13.05ZM177.11 7.92L175.85 7.42L175.85 7.14L178.23 6.65L178.37 6.79L178.37 11.35L178.37 11.35Q178.37 12.33 178.71 12.71L178.71 12.71L178.71 12.71Q179.05 13.10 179.85 13.10L179.85 13.10L179.85 13.10Q180.80 13.10 181.51 12.50L181.51 12.50L181.51 7.92L180.25 7.42L180.25 7.14L182.63 6.65L182.77 6.79L182.77 12.87L184.03 13.22L184.03 13.47L181.65 13.99L181.51 13.85L181.51 13.04L181.51 13.04Q181.04 13.49 180.41 13.74L180.41 13.74L180.41 13.74Q179.79 13.99 179.17 13.99L179.17 13.99L179.17 13.99Q178.76 13.99 178.40 13.86L178.40 13.86L178.40 13.86Q178.04 13.73 177.74 13.47L177.74 13.47L177.74 13.47Q177.45 13.21 177.28 12.77L177.28 12.77L177.28 12.77Q177.11 12.33 177.11 11.76L177.11 11.76L177.11 7.92ZM190.55 12.73L190.76 13.17L190.76 13.17Q190.20 13.61 189.68 13.79L189.68 13.79L189.68 13.79Q189.17 13.97 188.55 13.99L188.55 13.99L188.45 14.38L188.45 14.38Q189.17 14.41 189.58 14.77L189.58 14.77L189.58 14.77Q189.99 15.13 189.99 15.67L189.99 15.67L189.99 15.67Q189.99 16.08 189.84 16.38L189.84 16.38L189.84 16.38Q189.68 16.69 189.41 16.86L189.41 16.86L189.41 16.86Q189.14 17.03 188.82 17.11L188.82 17.11L188.82 17.11Q188.50 17.19 188.12 17.19L188.12 17.19L188.12 17.19Q187.60 17.19 187.09 17.06L187.09 17.06L187.09 16.54L187.09 16.54Q187.51 16.60 187.71 16.60L187.71 16.60L187.71 16.60Q188.88 16.60 188.88 15.68L188.88 15.68L188.88 15.68Q188.88 14.85 187.89 14.69L187.89 14.69L188.06 13.98L188.06 13.98Q187.46 13.93 186.92 13.65L186.92 13.65L186.92 13.65Q186.38 13.36 185.97 12.90L185.97 12.90L185.97 12.90Q185.56 12.44 185.32 11.77L185.32 11.77L185.32 11.77Q185.08 11.09 185.08 10.32L185.08 10.32L185.08 10.32Q185.08 9.44 185.34 8.73L185.34 8.73L185.34 8.73Q185.61 8.02 186.08 7.57L186.08 7.57L186.08 7.57Q186.55 7.12 187.15 6.88L187.15 6.88L187.15 6.88Q187.76 6.64 188.47 6.64L188.47 6.64L188.47 6.64Q189.47 6.64 190.44 7.09L190.44 7.09L190.44 9.20L190.16 9.20L189.40 7.37L189.40 7.37Q188.99 7.27 188.59 7.27L188.59 7.27L188.59 7.27Q187.52 7.27 187.00 8.07L187.00 8.07L187.00 8.07Q186.49 8.86 186.49 10.32L186.49 10.32L186.49 10.32Q186.49 11.72 187.17 12.46L187.17 12.46L187.17 12.46Q187.84 13.21 189.03 13.21L189.03 13.21L189.03 13.21Q189.43 13.21 189.76 13.10L189.76 13.10L189.76 13.10Q190.08 13.00 190.55 12.73L190.55 12.73ZM195.23 6.65L195.23 6.65L195.23 6.65Q196.01 6.65 196.63 6.92L196.63 6.92L196.63 6.92Q197.25 7.18 197.68 7.67L197.68 7.67L197.68 7.67Q198.11 8.15 198.34 8.83L198.34 8.83L198.34 8.83Q198.57 9.50 198.57 10.32L198.57 10.32L198.57 10.32Q198.57 11.14 198.34 11.81L198.34 11.81L198.34 11.81Q198.12 12.49 197.69 12.97L197.69 12.97L197.69 12.97Q197.26 13.46 196.64 13.73L196.64 13.73L196.64 13.73Q196.01 13.99 195.23 13.99L195.23 13.99L195.23 13.99Q194.43 13.99 193.81 13.73L193.81 13.73L193.81 13.73Q193.19 13.46 192.76 12.97L192.76 12.97L192.76 12.97Q192.33 12.49 192.10 11.82L192.10 11.82L192.10 11.82Q191.88 11.14 191.88 10.32L191.88 10.32L191.88 10.32Q191.88 9.50 192.11 8.83L192.11 8.83L192.11 8.83Q192.34 8.15 192.77 7.67L192.77 7.67L192.77 7.67Q193.20 7.18 193.82 6.92L193.82 6.92L193.82 6.92Q194.44 6.65 195.23 6.65ZM193.74 8.10L193.74 8.10L193.74 8.10Q193.21 8.96 193.21 10.32L193.21 10.32L193.21 10.32Q193.21 11.00 193.34 11.56L193.34 11.56L193.34 11.56Q193.48 12.13 193.73 12.53L193.73 12.53L193.73 12.53Q193.99 12.94 194.37 13.17L194.37 13.17L194.37 13.17Q194.74 13.39 195.23 13.39L195.23 13.39L195.23 13.39Q195.71 13.39 196.10 13.17L196.10 13.17L196.10 13.17Q196.48 12.94 196.74 12.53L196.74 12.53L196.74 12.53Q197.00 12.13 197.15 11.56L197.15 11.56L197.15 11.56Q197.29 11.00 197.29 10.32L197.29 10.32L197.29 10.32Q197.29 9.65 197.15 9.09L197.15 9.09L197.15 9.09Q197.00 8.52 196.74 8.12L196.74 8.12L196.74 8.12Q196.48 7.71 196.10 7.48L196.10 7.48L196.10 7.48Q195.71 7.25 195.23 7.25L195.23 7.25L195.23 7.25Q194.26 7.25 193.74 8.10ZM196.39 4.54L196.39 4.54L196.39 4.54Q196.98 4.44 197.45 3.91L197.45 3.91L197.74 4.16L197.74 4.16Q197.72 4.21 197.67 4.29L197.67 4.29L197.67 4.29Q197.63 4.37 197.47 4.58L197.47 4.58L197.47 4.58Q197.32 4.79 197.16 4.96L197.16 4.96L197.16 4.96Q197.00 5.13 196.76 5.29L196.76 5.29L196.76 5.29Q196.52 5.46 196.29 5.50L196.29 5.50L196.29 5.50Q195.91 5.57 195.22 5.30L195.22 5.30L195.22 5.30Q194.54 5.02 194.27 5.07L194.27 5.07L194.27 5.07Q194.00 5.12 193.77 5.26L193.77 5.26L193.77 5.26Q193.55 5.41 193.22 5.73L193.22 5.73L192.93 5.43L192.93 5.43Q192.96 5.39 193.01 5.30L193.01 5.30L193.01 5.30Q193.06 5.22 193.22 5.01L193.22 5.01L193.22 5.01Q193.38 4.80 193.54 4.63L193.54 4.63L193.54 4.63Q193.70 4.46 193.93 4.31L193.93 4.31L193.93 4.31Q194.15 4.16 194.36 4.12L194.36 4.12L194.36 4.12Q194.60 4.07 194.88 4.15L194.88 4.15L194.88 4.15Q195.15 4.22 195.36 4.33L195.36 4.33L195.36 4.33Q195.57 4.44 195.85 4.52L195.85 4.52L195.85 4.52Q196.14 4.59 196.39 4.54ZM205.86 10.17L205.67 10.36L201.24 10.36L201.24 10.36Q201.25 11.13 201.46 11.70L201.46 11.70L201.46 11.70Q201.67 12.26 202.04 12.58L202.04 12.58L202.04 12.58Q202.40 12.91 202.83 13.06L202.83 13.06L202.83 13.06Q203.27 13.21 203.78 13.21L203.78 13.21L203.78 13.21Q204.49 13.21 205.30 12.73L205.30 12.73L205.52 13.14L205.52 13.14Q204.94 13.64 204.37 13.82L204.37 13.82L204.37 13.82Q203.79 13.99 203.06 13.99L203.06 13.99L203.06 13.99Q202.43 13.99 201.84 13.72L201.84 13.72L201.84 13.72Q201.25 13.45 200.81 12.98L200.81 12.98L200.81 12.98Q200.36 12.50 200.09 11.81L200.09 11.81L200.09 11.81Q199.83 11.12 199.83 10.32L199.83 10.32L199.83 10.32Q199.83 9.56 200.02 8.94L200.02 8.94L200.02 8.94Q200.22 8.31 200.54 7.90L200.54 7.90L200.54 7.90Q200.86 7.48 201.29 7.19L201.29 7.19L201.29 7.19Q201.71 6.90 202.16 6.78L202.16 6.78L202.16 6.78Q202.61 6.65 203.08 6.65L203.08 6.65L203.08 6.65Q203.66 6.65 204.15 6.87L204.15 6.87L204.15 6.87Q204.65 7.08 205.03 7.50L205.03 7.50L205.03 7.50Q205.42 7.92 205.64 8.61L205.64 8.61L205.64 8.61Q205.86 9.29 205.86 10.17L205.86 10.17ZM203.10 7.31L203.10 7.31L203.10 7.31Q202.32 7.31 201.85 7.94L201.85 7.94L201.85 7.94Q201.38 8.56 201.27 9.64L201.27 9.64L204.53 9.64L204.53 9.64Q204.53 8.54 204.16 7.93L204.16 7.93L204.16 7.93Q203.79 7.31 203.10 7.31ZM207.27 11.51L207.61 11.51L208.35 13.06L208.35 13.06Q208.43 13.12 208.56 13.16L208.56 13.16L208.56 13.16Q208.69 13.21 208.84 13.24L208.84 13.24L208.84 13.24Q209.00 13.28 209.15 13.30L209.15 13.30L209.15 13.30Q209.31 13.32 209.46 13.32L209.46 13.32L209.46 13.32Q209.81 13.32 210.09 13.24L210.09 13.24L210.09 13.24Q210.38 13.17 210.58 13.04L210.58 13.04L210.58 13.04Q210.79 12.91 210.90 12.71L210.90 12.71L210.90 12.71Q211.00 12.52 211.00 12.27L211.00 12.27L211.00 12.27Q211.00 11.95 210.74 11.66L210.74 11.66L210.74 11.66Q210.48 11.37 210 11.09L210 11.09L209.27 10.68L209.27 10.68Q208.88 10.48 208.54 10.26L208.54 10.26L208.54 10.26Q208.20 10.04 207.95 9.78L207.95 9.78L207.95 9.78Q207.70 9.52 207.55 9.21L207.55 9.21L207.55 9.21Q207.40 8.89 207.40 8.50L207.40 8.50L207.40 8.50Q207.40 8.03 207.59 7.68L207.59 7.68L207.59 7.68Q207.77 7.33 208.11 7.11L208.11 7.11L208.11 7.11Q208.46 6.88 208.94 6.76L208.94 6.76L208.94 6.76Q209.42 6.65 210.01 6.65L210.01 6.65L210.01 6.65Q210.91 6.65 211.81 6.95L211.81 6.95L211.78 8.92L211.50 8.92L210.78 7.31L210.78 7.31Q210.52 7.28 210.33 7.26L210.33 7.26L210.33 7.26Q210.14 7.24 210.02 7.24L210.02 7.24L210.02 7.24Q209.65 7.24 209.38 7.32L209.38 7.32L209.38 7.32Q209.11 7.41 208.94 7.55L208.94 7.55L208.94 7.55Q208.76 7.69 208.68 7.87L208.68 7.87L208.68 7.87Q208.59 8.05 208.59 8.24L208.59 8.24L208.59 8.24Q208.59 8.46 208.68 8.64L208.68 8.64L208.68 8.64Q208.76 8.83 208.93 8.99L208.93 8.99L208.93 8.99Q209.10 9.15 209.35 9.31L209.35 9.31L209.35 9.31Q209.60 9.47 209.94 9.65L209.94 9.65L209.94 9.65Q210.42 9.91 210.73 10.08L210.73 10.08L210.73 10.08Q211.04 10.24 211.18 10.34L211.18 10.34L211.18 10.34Q212.25 11.05 212.25 11.99L212.25 11.99L212.25 11.99Q212.25 12.50 212.01 12.88L212.01 12.88L212.01 12.88Q211.76 13.25 211.37 13.51L211.37 13.51L211.37 13.51Q210.98 13.77 210.49 13.89L210.49 13.89L210.49 13.89Q209.99 14.02 209.49 14.02L209.49 14.02L209.49 14.02Q209.23 14.02 208.93 13.99L208.93 13.99L208.93 13.99Q208.63 13.95 208.33 13.89L208.33 13.89L208.33 13.89Q208.03 13.83 207.75 13.74L207.75 13.74L207.75 13.74Q207.48 13.66 207.27 13.56L207.27 13.56L207.27 11.51Z"></path></g><defs data-v-29081953=""><!----></defs><g data-v-29081953="" id="bcffe514-7f98-4982-9948-dd74414920f1" stroke="none" fill="#ffffff" transform="matrix(0.25524695348482374,0,0,0.25524695348482374,38.4243464736618,137.23733198179633)"><path d="M92.639 35.129L52.219 2.456a3.175 3.175 0 0 0-2.406-.68c-.726-.005-1.446.206-2.031.68L7.36 35.129c-.781.632-1.22 1.595-1.185 2.599s.541 1.934 1.365 2.508l5.297 3.697v31.229c0 1.131.598 2.179 1.573 2.753l33.74 19.893c.009.005.02.008.03.013.167.096.349.159.531.224.083.029.16.076.245.099.236.062.481.09.727.096.03.001.06.013.09.013h.003c.052 0 .104-.018.156-.02.222-.012.444-.03.661-.088.077-.02.146-.064.223-.091.184-.063.371-.124.544-.223.007-.004.012-.011.02-.015.005-.004.012-.004.018-.008l33.737-19.893a3.193 3.193 0 0 0 1.573-2.753V44.25l5.752-4.015a3.194 3.194 0 0 0 .179-5.106zM52.986 56.553V11.296l32.328 26.132-32.328 19.125zm-6.391-44.919v44.938L14.686 37.428l31.909-25.794zm-.018 77.827L19.23 73.337V47.859l27.347 16.123v25.479zm33.737-16.124L52.969 89.461V63.982l27.346-16.123v25.478z"></path></g><defs data-v-29081953=""><!----></defs><g data-v-29081953="" id="a3dd76f0-a9a2-41ce-8ec2-c349f80c3b33" fill="#ffffff" transform="matrix(0.2433105637551229,0,0,0.2433105637551229,75.01827827863112,155.89259692894817)"><path d="M4.52 3.78L4.52 3.78Q5.96 3.78 6.81 4.50L6.81 4.50L6.81 4.50Q7.66 5.22 7.66 6.48L7.66 6.48L7.66 6.48Q7.66 7.74 6.81 8.47L6.81 8.47L6.81 8.47Q5.96 9.20 4.52 9.20L4.52 9.20L2.16 9.20L2.16 13.02L1.46 13.02L1.46 3.78L4.52 3.78ZM4.44 8.54L4.44 8.54Q5.64 8.54 6.28 8.01L6.28 8.01L6.28 8.01Q6.92 7.48 6.92 6.48L6.92 6.48L6.92 6.48Q6.92 5.50 6.28 4.96L6.28 4.96L6.28 4.96Q5.64 4.42 4.44 4.42L4.44 4.42L2.16 4.42L2.16 8.54L4.44 8.54ZM23.62 13.02L22.79 13.02L20.15 9.02L20.10 9.02L17.37 9.02L17.37 13.02L16.67 13.02L16.67 3.78L20.10 3.78L20.10 3.78Q21.49 3.78 22.31 4.48L22.31 4.48L22.31 4.48Q23.13 5.18 23.13 6.40L23.13 6.40L23.13 6.40Q23.13 7.41 22.54 8.07L22.54 8.07L22.54 8.07Q21.95 8.74 20.93 8.93L20.93 8.93L23.62 13.02ZM17.37 4.42L17.37 8.36L20.09 8.36L20.09 8.36Q21.21 8.36 21.80 7.85L21.80 7.85L21.80 7.85Q22.40 7.35 22.40 6.40L22.40 6.40L22.40 6.40Q22.40 5.45 21.80 4.93L21.80 4.93L21.80 4.93Q21.21 4.42 20.09 4.42L20.09 4.42L17.37 4.42ZM36.26 3.64L36.26 3.64Q37.56 3.64 38.52 4.22L38.52 4.22L38.52 4.22Q39.48 4.80 40.00 5.87L40.00 5.87L40.00 5.87Q40.52 6.94 40.52 8.40L40.52 8.40L40.52 8.40Q40.52 9.86 40.00 10.93L40.00 10.93L40.00 10.93Q39.48 12.00 38.52 12.58L38.52 12.58L38.52 12.58Q37.56 13.16 36.26 13.16L36.26 13.16L36.26 13.16Q34.96 13.16 34.00 12.58L34.00 12.58L34.00 12.58Q33.04 12.00 32.52 10.93L32.52 10.93L32.52 10.93Q32.00 9.86 32.00 8.40L32.00 8.40L32.00 8.40Q32.00 6.94 32.52 5.87L32.52 5.87L32.52 5.87Q33.04 4.80 34.00 4.22L34.00 4.22L34.00 4.22Q34.96 3.64 36.26 3.64L36.26 3.64ZM36.26 4.28L36.26 4.28Q35.18 4.28 34.39 4.78L34.39 4.78L34.39 4.78Q33.60 5.28 33.17 6.21L33.17 6.21L33.17 6.21Q32.75 7.14 32.75 8.40L32.75 8.40L32.75 8.40Q32.75 9.66 33.17 10.59L33.17 10.59L33.17 10.59Q33.60 11.52 34.39 12.02L34.39 12.02L34.39 12.02Q35.18 12.52 36.26 12.52L36.26 12.52L36.26 12.52Q37.34 12.52 38.14 12.02L38.14 12.02L38.14 12.02Q38.93 11.52 39.36 10.59L39.36 10.59L39.36 10.59Q39.79 9.66 39.79 8.40L39.79 8.40L39.79 8.40Q39.79 7.14 39.36 6.21L39.36 6.21L39.36 6.21Q38.93 5.28 38.14 4.78L38.14 4.78L38.14 4.78Q37.34 4.28 36.26 4.28L36.26 4.28ZM56.14 4.42L50.54 4.42L50.54 7.99L54.98 7.99L54.98 8.65L50.54 8.65L50.54 13.02L49.84 13.02L49.84 3.78L56.14 3.78L56.14 4.42ZM65.72 3.78L65.72 13.02L65.02 13.02L65.02 3.78L65.72 3.78ZM78.48 3.64L78.48 3.64Q81.09 3.64 81.97 5.68L81.97 5.68L81.37 6.17L81.37 6.17Q81.02 5.18 80.33 4.73L80.33 4.73L80.33 4.73Q79.63 4.28 78.50 4.28L78.50 4.28L78.50 4.28Q77.69 4.28 77.08 4.54L77.08 4.54L77.08 4.54Q76.48 4.79 76.17 5.22L76.17 5.22L76.17 5.22Q75.85 5.66 75.85 6.20L75.85 6.20L75.85 6.20Q75.85 6.73 76.12 7.08L76.12 7.08L76.12 7.08Q76.38 7.43 77.02 7.68L77.02 7.68L77.02 7.68Q77.66 7.92 78.78 8.12L78.78 8.12L78.78 8.12Q80.58 8.43 81.34 9.02L81.34 9.02L81.34 9.02Q82.10 9.60 82.10 10.64L82.10 10.64L82.10 10.64Q82.10 11.38 81.66 11.96L81.66 11.96L81.66 11.96Q81.23 12.53 80.44 12.84L80.44 12.84L80.44 12.84Q79.65 13.16 78.62 13.16L78.62 13.16L78.62 13.16Q77.17 13.16 76.17 12.58L76.17 12.58L76.17 12.58Q75.17 12.00 74.80 10.95L74.80 10.95L75.42 10.47L75.42 10.47Q75.70 11.47 76.55 11.99L76.55 11.99L76.55 11.99Q77.39 12.52 78.64 12.52L78.64 12.52L78.64 12.52Q79.84 12.52 80.60 12.03L80.60 12.03L80.60 12.03Q81.37 11.54 81.37 10.68L81.37 10.68L81.37 10.68Q81.37 9.94 80.75 9.51L80.75 9.51L80.75 9.51Q80.12 9.07 78.58 8.81L78.58 8.81L78.58 8.81Q77.28 8.58 76.52 8.26L76.52 8.26L76.52 8.26Q75.77 7.94 75.44 7.46L75.44 7.46L75.44 7.46Q75.11 6.99 75.11 6.27L75.11 6.27L75.11 6.27Q75.11 5.56 75.52 4.96L75.52 4.96L75.52 4.96Q75.94 4.35 76.70 4.00L76.70 4.00L76.70 4.00Q77.46 3.64 78.48 3.64L78.48 3.64ZM94.15 3.64L94.15 3.64Q96.75 3.64 97.64 5.68L97.64 5.68L97.03 6.17L97.03 6.17Q96.68 5.18 95.99 4.73L95.99 4.73L95.99 4.73Q95.30 4.28 94.16 4.28L94.16 4.28L94.16 4.28Q93.35 4.28 92.75 4.54L92.75 4.54L92.75 4.54Q92.15 4.79 91.83 5.22L91.83 5.22L91.83 5.22Q91.52 5.66 91.52 6.20L91.52 6.20L91.52 6.20Q91.52 6.73 91.78 7.08L91.78 7.08L91.78 7.08Q92.05 7.43 92.69 7.68L92.69 7.68L92.69 7.68Q93.32 7.92 94.44 8.12L94.44 8.12L94.44 8.12Q96.25 8.43 97.01 9.02L97.01 9.02L97.01 9.02Q97.76 9.60 97.76 10.64L97.76 10.64L97.76 10.64Q97.76 11.38 97.33 11.96L97.33 11.96L97.33 11.96Q96.89 12.53 96.10 12.84L96.10 12.84L96.10 12.84Q95.31 13.16 94.29 13.16L94.29 13.16L94.29 13.16Q92.83 13.16 91.83 12.58L91.83 12.58L91.83 12.58Q90.83 12.00 90.47 10.95L90.47 10.95L91.08 10.47L91.08 10.47Q91.36 11.47 92.21 11.99L92.21 11.99L92.21 11.99Q93.06 12.52 94.30 12.52L94.30 12.52L94.30 12.52Q95.51 12.52 96.27 12.03L96.27 12.03L96.27 12.03Q97.03 11.54 97.03 10.68L97.03 10.68L97.03 10.68Q97.03 9.94 96.41 9.51L96.41 9.51L96.41 9.51Q95.79 9.07 94.25 8.81L94.25 8.81L94.25 8.81Q92.95 8.58 92.19 8.26L92.19 8.26L92.19 8.26Q91.43 7.94 91.10 7.46L91.10 7.46L91.10 7.46Q90.78 6.99 90.78 6.27L90.78 6.27L90.78 6.27Q90.78 5.56 91.19 4.96L91.19 4.96L91.19 4.96Q91.60 4.35 92.36 4.00L92.36 4.00L92.36 4.00Q93.13 3.64 94.15 3.64L94.15 3.64ZM107.66 3.78L107.66 13.02L106.96 13.02L106.96 3.78L107.66 3.78ZM121.24 3.64L121.24 3.64Q122.54 3.64 123.50 4.22L123.50 4.22L123.50 4.22Q124.46 4.80 124.98 5.87L124.98 5.87L124.98 5.87Q125.50 6.94 125.50 8.40L125.50 8.40L125.50 8.40Q125.50 9.86 124.98 10.93L124.98 10.93L124.98 10.93Q124.46 12.00 123.50 12.58L123.50 12.58L123.50 12.58Q122.54 13.16 121.24 13.16L121.24 13.16L121.24 13.16Q119.94 13.16 118.98 12.58L118.98 12.58L118.98 12.58Q118.02 12.00 117.50 10.93L117.50 10.93L117.50 10.93Q116.98 9.86 116.98 8.40L116.98 8.40L116.98 8.40Q116.98 6.94 117.50 5.87L117.50 5.87L117.50 5.87Q118.02 4.80 118.98 4.22L118.98 4.22L118.98 4.22Q119.94 3.64 121.24 3.64L121.24 3.64ZM121.24 4.28L121.24 4.28Q120.16 4.28 119.37 4.78L119.37 4.78L119.37 4.78Q118.58 5.28 118.15 6.21L118.15 6.21L118.15 6.21Q117.73 7.14 117.73 8.40L117.73 8.40L117.73 8.40Q117.73 9.66 118.15 10.59L118.15 10.59L118.15 10.59Q118.58 11.52 119.37 12.02L119.37 12.02L119.37 12.02Q120.16 12.52 121.24 12.52L121.24 12.52L121.24 12.52Q122.32 12.52 123.12 12.02L123.12 12.02L123.12 12.02Q123.91 11.52 124.34 10.59L124.34 10.59L124.34 10.59Q124.77 9.66 124.77 8.40L124.77 8.40L124.77 8.40Q124.77 7.14 124.34 6.21L124.34 6.21L124.34 6.21Q123.91 5.28 123.12 4.78L123.12 4.78L123.12 4.78Q122.32 4.28 121.24 4.28L121.24 4.28ZM141.92 3.78L141.92 13.02L141.05 13.02L136.15 5.77L135.46 4.54L135.45 4.54L135.49 5.70L135.49 13.02L134.82 13.02L134.82 3.78L135.70 3.78L140.59 11.02L141.29 12.26L141.26 11.10L141.26 3.78L141.92 3.78ZM158.12 13.02L156.95 10.12L152.53 10.12L151.38 13.02L150.64 13.02L154.34 3.78L155.16 3.78L158.86 13.02L158.12 13.02ZM152.80 9.48L156.70 9.48L155.09 5.45L154.76 4.47L154.74 4.47L154.41 5.42L152.80 9.48ZM168.28 12.38L173.82 12.38L173.82 13.02L167.58 13.02L167.58 3.78L168.28 3.78L168.28 12.38ZM183.29 3.78L183.29 13.02L182.59 13.02L182.59 3.78L183.29 3.78ZM196.06 3.64L196.06 3.64Q198.66 3.64 199.54 5.68L199.54 5.68L198.94 6.17L198.94 6.17Q198.59 5.18 197.90 4.73L197.90 4.73L197.90 4.73Q197.20 4.28 196.07 4.28L196.07 4.28L196.07 4.28Q195.26 4.28 194.66 4.54L194.66 4.54L194.66 4.54Q194.05 4.79 193.74 5.22L193.74 5.22L193.74 5.22Q193.42 5.66 193.42 6.20L193.42 6.20L193.42 6.20Q193.42 6.73 193.69 7.08L193.69 7.08L193.69 7.08Q193.96 7.43 194.59 7.68L194.59 7.68L194.59 7.68Q195.23 7.92 196.35 8.12L196.35 8.12L196.35 8.12Q198.16 8.43 198.91 9.02L198.91 9.02L198.91 9.02Q199.67 9.60 199.67 10.64L199.67 10.64L199.67 10.64Q199.67 11.38 199.23 11.96L199.23 11.96L199.23 11.96Q198.80 12.53 198.01 12.84L198.01 12.84L198.01 12.84Q197.22 13.16 196.20 13.16L196.20 13.16L196.20 13.16Q194.74 13.16 193.74 12.58L193.74 12.58L193.74 12.58Q192.74 12.00 192.37 10.95L192.37 10.95L192.99 10.47L192.99 10.47Q193.27 11.47 194.12 11.99L194.12 11.99L194.12 11.99Q194.96 12.52 196.21 12.52L196.21 12.52L196.21 12.52Q197.41 12.52 198.18 12.03L198.18 12.03L198.18 12.03Q198.94 11.54 198.94 10.68L198.94 10.68L198.94 10.68Q198.94 9.94 198.32 9.51L198.32 9.51L198.32 9.51Q197.69 9.07 196.15 8.81L196.15 8.81L196.15 8.81Q194.85 8.58 194.10 8.26L194.10 8.26L194.10 8.26Q193.34 7.94 193.01 7.46L193.01 7.46L193.01 7.46Q192.68 6.99 192.68 6.27L192.68 6.27L192.68 6.27Q192.68 5.56 193.09 4.96L193.09 4.96L193.09 4.96Q193.51 4.35 194.27 4.00L194.27 4.00L194.27 4.00Q195.03 3.64 196.06 3.64L196.06 3.64ZM217.46 3.78L217.46 13.02L216.79 13.02L216.79 6.13L216.87 4.45L216.86 4.45L213.49 13.02L212.84 13.02L209.47 4.45L209.45 4.45L209.54 6.13L209.54 13.02L208.87 13.02L208.87 3.78L209.92 3.78L212.70 10.78L213.16 12.19L213.18 12.19L213.63 10.79L216.41 3.78L217.46 3.78ZM231.04 3.64L231.04 3.64Q232.34 3.64 233.30 4.22L233.30 4.22L233.30 4.22Q234.26 4.80 234.78 5.87L234.78 5.87L234.78 5.87Q235.30 6.94 235.30 8.40L235.30 8.40L235.30 8.40Q235.30 9.86 234.78 10.93L234.78 10.93L234.78 10.93Q234.26 12.00 233.30 12.58L233.30 12.58L233.30 12.58Q232.34 13.16 231.04 13.16L231.04 13.16L231.04 13.16Q229.74 13.16 228.78 12.58L228.78 12.58L228.78 12.58Q227.82 12.00 227.30 10.93L227.30 10.93L227.30 10.93Q226.79 9.86 226.79 8.40L226.79 8.40L226.79 8.40Q226.79 6.94 227.30 5.87L227.30 5.87L227.30 5.87Q227.82 4.80 228.78 4.22L228.78 4.22L228.78 4.22Q229.74 3.64 231.04 3.64L231.04 3.64ZM231.04 4.28L231.04 4.28Q229.96 4.28 229.17 4.78L229.17 4.78L229.17 4.78Q228.38 5.28 227.95 6.21L227.95 6.21L227.95 6.21Q227.53 7.14 227.53 8.40L227.53 8.40L227.53 8.40Q227.53 9.66 227.95 10.59L227.95 10.59L227.95 10.59Q228.38 11.52 229.17 12.02L229.17 12.02L229.17 12.02Q229.96 12.52 231.04 12.52L231.04 12.52L231.04 12.52Q232.12 12.52 232.92 12.02L232.92 12.02L232.92 12.02Q233.72 11.52 234.14 10.59L234.14 10.59L234.14 10.59Q234.57 9.66 234.57 8.40L234.57 8.40L234.57 8.40Q234.57 7.14 234.14 6.21L234.14 6.21L234.14 6.21Q233.72 5.28 232.92 4.78L232.92 4.78L232.92 4.78Q232.12 4.28 231.04 4.28L231.04 4.28ZM244.22 11.87L244.22 11.87Q244.58 11.87 244.78 12.15L244.78 12.15L244.78 12.15Q244.99 12.43 244.99 12.89L244.99 12.89L244.99 12.89Q244.99 13.48 244.68 14L244.68 14L244.68 14Q244.37 14.52 243.78 14.81L243.78 14.81L243.39 14.46L243.39 14.46Q243.88 14.28 244.19 13.85L244.19 13.85L244.19 13.85Q244.51 13.41 244.48 13.01L244.48 13.01L244.44 12.99L244.44 12.99Q244.34 13.13 244.12 13.13L244.12 13.13L244.12 13.13Q243.91 13.13 243.74 12.96L243.74 12.96L243.74 12.96Q243.57 12.80 243.57 12.52L243.57 12.52L243.57 12.52Q243.57 12.25 243.76 12.06L243.76 12.06L243.76 12.06Q243.95 11.87 244.22 11.87L244.22 11.87ZM269.25 3.64L269.25 3.64Q270.55 3.64 271.51 4.22L271.51 4.22L271.51 4.22Q272.47 4.80 272.99 5.87L272.99 5.87L272.99 5.87Q273.50 6.94 273.50 8.40L273.50 8.40L273.50 8.40Q273.50 9.86 272.99 10.93L272.99 10.93L272.99 10.93Q272.47 12.00 271.51 12.58L271.51 12.58L271.51 12.58Q270.55 13.16 269.25 13.16L269.25 13.16L269.25 13.16Q267.95 13.16 266.99 12.58L266.99 12.58L266.99 12.58Q266.03 12.00 265.51 10.93L265.51 10.93L265.51 10.93Q264.99 9.86 264.99 8.40L264.99 8.40L264.99 8.40Q264.99 6.94 265.51 5.87L265.51 5.87L265.51 5.87Q266.03 4.80 266.99 4.22L266.99 4.22L266.99 4.22Q267.95 3.64 269.25 3.64L269.25 3.64ZM269.25 4.28L269.25 4.28Q268.17 4.28 267.38 4.78L267.38 4.78L267.38 4.78Q266.59 5.28 266.16 6.21L266.16 6.21L266.16 6.21Q265.73 7.14 265.73 8.40L265.73 8.40L265.73 8.40Q265.73 9.66 266.16 10.59L266.16 10.59L266.16 10.59Q266.59 11.52 267.38 12.02L267.38 12.02L267.38 12.02Q268.17 12.52 269.25 12.52L269.25 12.52L269.25 12.52Q270.33 12.52 271.12 12.02L271.12 12.02L271.12 12.02Q271.92 11.52 272.35 10.59L272.35 10.59L272.35 10.59Q272.78 9.66 272.78 8.40L272.78 8.40L272.78 8.40Q272.78 7.14 272.35 6.21L272.35 6.21L272.35 6.21Q271.92 5.28 271.12 4.78L271.12 4.78L271.12 4.78Q270.33 4.28 269.25 4.28L269.25 4.28ZM289.77 13.02L288.95 13.02L286.30 9.02L286.26 9.02L283.53 9.02L283.53 13.02L282.83 13.02L282.83 3.78L286.26 3.78L286.26 3.78Q287.64 3.78 288.46 4.48L288.46 4.48L288.46 4.48Q289.28 5.18 289.28 6.40L289.28 6.40L289.28 6.40Q289.28 7.41 288.69 8.07L288.69 8.07L288.69 8.07Q288.11 8.74 287.08 8.93L287.08 8.93L289.77 13.02ZM283.53 4.42L283.53 8.36L286.24 8.36L286.24 8.36Q287.36 8.36 287.96 7.85L287.96 7.85L287.96 7.85Q288.55 7.35 288.55 6.40L288.55 6.40L288.55 6.40Q288.55 5.45 287.96 4.93L287.96 4.93L287.96 4.93Q287.36 4.42 286.24 4.42L286.24 4.42L283.53 4.42ZM302.30 8.50L306.10 8.50L306.10 13.02L305.54 13.02L305.51 11.41L305.51 11.41Q305.13 12.25 304.32 12.71L304.32 12.71L304.32 12.71Q303.52 13.16 302.33 13.16L302.33 13.16L302.33 13.16Q301.07 13.16 300.12 12.58L300.12 12.58L300.12 12.58Q299.18 12.00 298.67 10.92L298.67 10.92L298.67 10.92Q298.16 9.84 298.16 8.40L298.16 8.40L298.16 8.40Q298.16 6.96 298.68 5.88L298.68 5.88L298.68 5.88Q299.21 4.80 300.16 4.22L300.16 4.22L300.16 4.22Q301.11 3.64 302.37 3.64L302.37 3.64L302.37 3.64Q303.79 3.64 304.68 4.20L304.68 4.20L304.68 4.20Q305.58 4.76 306.03 5.91L306.03 5.91L305.38 6.24L305.38 6.24Q305.06 5.28 304.30 4.78L304.30 4.78L304.30 4.78Q303.53 4.28 302.37 4.28L302.37 4.28L302.37 4.28Q301.34 4.28 300.55 4.78L300.55 4.78L300.55 4.78Q299.77 5.28 299.33 6.21L299.33 6.21L299.33 6.21Q298.90 7.14 298.90 8.40L298.90 8.40L298.90 8.40Q298.90 10.32 299.82 11.42L299.82 11.42L299.82 11.42Q300.73 12.52 302.36 12.52L302.36 12.52L302.36 12.52Q303.37 12.52 304.07 12.12L304.07 12.12L304.07 12.12Q304.77 11.72 305.10 11.07L305.10 11.07L305.10 11.07Q305.44 10.42 305.44 9.67L305.44 9.67L305.44 9.16L302.30 9.16L302.30 8.50ZM321.86 13.02L320.70 10.12L316.27 10.12L315.13 13.02L314.38 13.02L318.08 3.78L318.91 3.78L322.60 13.02L321.86 13.02ZM316.54 9.48L320.45 9.48L318.84 5.45L318.50 4.47L318.49 4.47L318.15 5.42L316.54 9.48ZM338.42 3.78L338.42 13.02L337.55 13.02L332.65 5.77L331.97 4.54L331.95 4.54L332.00 5.70L332.00 13.02L331.32 13.02L331.32 3.78L332.21 3.78L337.09 11.02L337.79 12.26L337.76 11.10L337.76 3.78L338.42 3.78ZM349.03 3.78L349.03 13.02L348.33 13.02L348.33 3.78L349.03 3.78ZM358.92 12.38L365.23 12.38L365.23 13.02L358.09 13.02L358.09 12.40L364.18 4.42L358.22 4.42L358.22 3.78L365.01 3.78L365.01 4.40L358.92 12.38ZM380.53 13.02L379.37 10.12L374.95 10.12L373.80 13.02L373.06 13.02L376.75 3.78L377.58 3.78L381.28 13.02L380.53 13.02ZM375.21 9.48L379.12 9.48L377.51 5.45L377.17 4.47L377.16 4.47L376.82 5.42L375.21 9.48ZM397.07 10.68L397.07 10.68Q396.72 11.75 395.88 12.38L395.88 12.38L395.88 12.38Q395.04 13.02 393.86 13.13L393.86 13.13L393.86 13.13Q394.77 13.73 394.77 14.60L394.77 14.60L394.77 14.60Q394.77 15.18 394.38 15.56L394.38 15.56L394.38 15.56Q393.99 15.95 393.33 15.95L393.33 15.95L393.33 15.95Q392.85 15.95 392.51 15.82L392.51 15.82L392.51 15.82Q392.17 15.69 391.89 15.41L391.89 15.41L392.17 14.92L392.17 14.92Q392.57 15.41 393.25 15.41L393.25 15.41L393.25 15.41Q393.64 15.41 393.90 15.17L393.90 15.17L393.90 15.17Q394.16 14.92 394.16 14.52L394.16 14.52L394.16 14.52Q394.16 14.11 393.91 13.81L393.91 13.81L393.91 13.81Q393.67 13.51 393.01 13.15L393.01 13.15L393.01 13.15Q391.85 13.06 390.98 12.46L390.98 12.46L390.98 12.46Q390.11 11.86 389.64 10.81L389.64 10.81L389.64 10.81Q389.17 9.77 389.17 8.40L389.17 8.40L389.17 8.40Q389.17 6.96 389.69 5.88L389.69 5.88L389.69 5.88Q390.21 4.80 391.16 4.22L391.16 4.22L391.16 4.22Q392.11 3.64 393.36 3.64L393.36 3.64L393.36 3.64Q396.13 3.64 396.94 5.92L396.94 5.92L396.26 6.24L396.26 6.24Q395.93 5.26 395.23 4.77L395.23 4.77L395.23 4.77Q394.52 4.28 393.40 4.28L393.40 4.28L393.40 4.28Q392.36 4.28 391.57 4.78L391.57 4.78L391.57 4.78Q390.78 5.28 390.35 6.21L390.35 6.21L390.35 6.21Q389.91 7.14 389.91 8.40L389.91 8.40L389.91 8.40Q389.91 9.66 390.34 10.59L390.34 10.59L390.34 10.59Q390.77 11.52 391.54 12.02L391.54 12.02L391.54 12.02Q392.32 12.52 393.37 12.52L393.37 12.52L393.37 12.52Q394.49 12.52 395.28 11.97L395.28 11.97L395.28 11.97Q396.06 11.42 396.37 10.42L396.37 10.42L397.07 10.68ZM412.41 13.02L411.25 10.12L406.83 10.12L405.68 13.02L404.94 13.02L408.63 3.78L409.46 3.78L413.15 13.02L412.41 13.02ZM407.09 9.48L411.00 9.48L409.39 5.45L409.05 4.47L409.04 4.47L408.70 5.42L407.09 9.48ZM411.43 0.97L411.43 0.97Q411.33 1.75 411.00 2.13L411.00 2.13L411.00 2.13Q410.66 2.51 410.05 2.51L410.05 2.51L410.05 2.51Q409.65 2.51 409.41 2.37L409.41 2.37L409.41 2.37Q409.16 2.24 408.87 1.97L408.87 1.97L408.87 1.97Q408.65 1.76 408.47 1.66L408.47 1.66L408.47 1.66Q408.30 1.55 408.06 1.55L408.06 1.55L408.06 1.55Q407.68 1.55 407.50 1.79L407.50 1.79L407.50 1.79Q407.33 2.02 407.23 2.52L407.23 2.52L406.67 2.52L406.67 2.52Q406.77 1.74 407.10 1.36L407.10 1.36L407.10 1.36Q407.43 0.98 408.07 0.98L408.07 0.98L408.07 0.98Q408.45 0.98 408.69 1.11L408.69 1.11L408.69 1.11Q408.94 1.25 409.23 1.51L409.23 1.51L409.23 1.51Q409.46 1.72 409.63 1.83L409.63 1.83L409.63 1.83Q409.81 1.93 410.03 1.93L410.03 1.93L410.03 1.93Q410.41 1.93 410.59 1.70L410.59 1.70L410.59 1.70Q410.77 1.47 410.87 0.97L410.87 0.97L411.43 0.97ZM425.31 3.64L425.31 3.64Q426.61 3.64 427.57 4.22L427.57 4.22L427.57 4.22Q428.53 4.80 429.04 5.87L429.04 5.87L429.04 5.87Q429.56 6.94 429.56 8.40L429.56 8.40L429.56 8.40Q429.56 9.86 429.04 10.93L429.04 10.93L429.04 10.93Q428.53 12.00 427.57 12.58L427.57 12.58L427.57 12.58Q426.61 13.16 425.31 13.16L425.31 13.16L425.31 13.16Q424.00 13.16 423.04 12.58L423.04 12.58L423.04 12.58Q422.09 12.00 421.57 10.93L421.57 10.93L421.57 10.93Q421.05 9.86 421.05 8.40L421.05 8.40L421.05 8.40Q421.05 6.94 421.57 5.87L421.57 5.87L421.57 5.87Q422.09 4.80 423.04 4.22L423.04 4.22L423.04 4.22Q424.00 3.64 425.31 3.64L425.31 3.64ZM425.31 4.28L425.31 4.28Q424.23 4.28 423.44 4.78L423.44 4.78L423.44 4.78Q422.65 5.28 422.22 6.21L422.22 6.21L422.22 6.21Q421.79 7.14 421.79 8.40L421.79 8.40L421.79 8.40Q421.79 9.66 422.22 10.59L422.22 10.59L422.22 10.59Q422.65 11.52 423.44 12.02L423.44 12.02L423.44 12.02Q424.23 12.52 425.31 12.52L425.31 12.52L425.31 12.52Q426.38 12.52 427.18 12.02L427.18 12.02L427.18 12.02Q427.98 11.52 428.41 10.59L428.41 10.59L428.41 10.59Q428.83 9.66 428.83 8.40L428.83 8.40L428.83 8.40Q428.83 7.14 428.41 6.21L428.41 6.21L428.41 6.21Q427.98 5.28 427.18 4.78L427.18 4.78L427.18 4.78Q426.38 4.28 425.31 4.28L425.31 4.28ZM438.48 11.87L438.48 11.87Q438.84 11.87 439.05 12.15L439.05 12.15L439.05 12.15Q439.25 12.43 439.25 12.89L439.25 12.89L439.25 12.89Q439.25 13.48 438.94 14L438.94 14L438.94 14Q438.63 14.52 438.05 14.81L438.05 14.81L437.65 14.46L437.65 14.46Q438.14 14.28 438.46 13.85L438.46 13.85L438.46 13.85Q438.77 13.41 438.75 13.01L438.75 13.01L438.70 12.99L438.70 12.99Q438.61 13.13 438.38 13.13L438.38 13.13L438.38 13.13Q438.17 13.13 438.00 12.96L438.00 12.96L438.00 12.96Q437.84 12.80 437.84 12.52L437.84 12.52L437.84 12.52Q437.84 12.25 438.02 12.06L438.02 12.06L438.02 12.06Q438.21 11.87 438.48 11.87L438.48 11.87ZM462.76 3.78L462.76 3.78Q464.97 3.78 466.16 4.95L466.16 4.95L466.16 4.95Q467.36 6.12 467.36 8.33L467.36 8.33L467.36 8.33Q467.36 10.60 466.16 11.81L466.16 11.81L466.16 11.81Q464.97 13.02 462.76 13.02L462.76 13.02L459.84 13.02L459.84 3.78L462.76 3.78ZM462.81 12.38L462.81 12.38Q464.66 12.38 465.65 11.33L465.65 11.33L465.65 11.33Q466.63 10.29 466.63 8.33L466.63 8.33L466.63 8.33Q466.63 6.45 465.65 5.44L465.65 5.44L465.65 5.44Q464.66 4.42 462.81 4.42L462.81 4.42L460.54 4.42L460.54 12.38L462.81 12.38ZM477.40 12.38L483.24 12.38L483.24 13.02L476.70 13.02L476.70 3.78L483.01 3.78L483.01 4.42L477.40 4.42L477.40 7.99L481.84 7.99L481.84 8.65L477.40 8.65L477.40 12.38ZM495.18 3.78L495.18 3.78Q497.39 3.78 498.59 4.95L498.59 4.95L498.59 4.95Q499.79 6.12 499.79 8.33L499.79 8.33L499.79 8.33Q499.79 10.60 498.59 11.81L498.59 11.81L498.59 11.81Q497.39 13.02 495.18 13.02L495.18 13.02L492.27 13.02L492.27 3.78L495.18 3.78ZM495.24 12.38L495.24 12.38Q497.08 12.38 498.07 11.33L498.07 11.33L498.07 11.33Q499.06 10.29 499.06 8.33L499.06 8.33L499.06 8.33Q499.06 6.45 498.07 5.44L498.07 5.44L498.07 5.44Q497.08 4.42 495.24 4.42L495.24 4.42L492.97 4.42L492.97 12.38L495.24 12.38ZM509.82 3.78L509.82 13.02L509.12 13.02L509.12 3.78L509.82 3.78ZM527.04 10.68L527.04 10.68Q526.65 11.86 525.68 12.51L525.68 12.51L525.68 12.51Q524.71 13.16 523.35 13.16L523.35 13.16L523.35 13.16Q522.09 13.16 521.14 12.58L521.14 12.58L521.14 12.58Q520.18 12.00 519.67 10.92L519.67 10.92L519.67 10.92Q519.15 9.84 519.15 8.40L519.15 8.40L519.15 8.40Q519.15 6.96 519.67 5.88L519.67 5.88L519.67 5.88Q520.18 4.80 521.14 4.22L521.14 4.22L521.14 4.22Q522.09 3.64 523.33 3.64L523.33 3.64L523.33 3.64Q526.11 3.64 526.92 5.92L526.92 5.92L526.23 6.24L526.23 6.24Q525.91 5.26 525.20 4.77L525.20 4.77L525.20 4.77Q524.50 4.28 523.38 4.28L523.38 4.28L523.38 4.28Q522.34 4.28 521.55 4.78L521.55 4.78L521.55 4.78Q520.76 5.28 520.32 6.21L520.32 6.21L520.32 6.21Q519.89 7.14 519.89 8.40L519.89 8.40L519.89 8.40Q519.89 9.66 520.32 10.59L520.32 10.59L520.32 10.59Q520.74 11.52 521.52 12.02L521.52 12.02L521.52 12.02Q522.30 12.52 523.35 12.52L523.35 12.52L523.35 12.52Q524.47 12.52 525.25 11.97L525.25 11.97L525.25 11.97Q526.04 11.42 526.34 10.42L526.34 10.42L527.04 10.68ZM542.39 13.02L541.23 10.12L536.80 10.12L535.65 13.02L534.91 13.02L538.61 3.78L539.43 3.78L543.13 13.02L542.39 13.02ZM537.07 9.48L540.97 9.48L539.36 5.45L539.03 4.47L539.01 4.47L538.68 5.42L537.07 9.48ZM558.92 10.68L558.92 10.68Q558.57 11.75 557.73 12.38L557.73 12.38L557.73 12.38Q556.89 13.02 555.72 13.13L555.72 13.13L555.72 13.13Q556.63 13.73 556.63 14.60L556.63 14.60L556.63 14.60Q556.63 15.18 556.23 15.56L556.23 15.56L556.23 15.56Q555.84 15.95 555.18 15.95L555.18 15.95L555.18 15.95Q554.71 15.95 554.36 15.82L554.36 15.82L554.36 15.82Q554.02 15.69 553.74 15.41L553.74 15.41L554.02 14.92L554.02 14.92Q554.43 15.41 555.10 15.41L555.10 15.41L555.10 15.41Q555.49 15.41 555.75 15.17L555.75 15.17L555.75 15.17Q556.01 14.92 556.01 14.52L556.01 14.52L556.01 14.52Q556.01 14.11 555.76 13.81L555.76 13.81L555.76 13.81Q555.52 13.51 554.86 13.15L554.86 13.15L554.86 13.15Q553.70 13.06 552.83 12.46L552.83 12.46L552.83 12.46Q551.96 11.86 551.49 10.81L551.49 10.81L551.49 10.81Q551.03 9.77 551.03 8.40L551.03 8.40L551.03 8.40Q551.03 6.96 551.54 5.88L551.54 5.88L551.54 5.88Q552.06 4.80 553.01 4.22L553.01 4.22L553.01 4.22Q553.97 3.64 555.21 3.64L555.21 3.64L555.21 3.64Q557.98 3.64 558.80 5.92L558.80 5.92L558.11 6.24L558.11 6.24Q557.79 5.26 557.08 4.77L557.08 4.77L557.08 4.77Q556.37 4.28 555.25 4.28L555.25 4.28L555.25 4.28Q554.22 4.28 553.43 4.78L553.43 4.78L553.43 4.78Q552.64 5.28 552.20 6.21L552.20 6.21L552.20 6.21Q551.77 7.14 551.77 8.40L551.77 8.40L551.77 8.40Q551.77 9.66 552.19 10.59L552.19 10.59L552.19 10.59Q552.62 11.52 553.40 12.02L553.40 12.02L553.40 12.02Q554.18 12.52 555.23 12.52L555.23 12.52L555.23 12.52Q556.35 12.52 557.13 11.97L557.13 11.97L557.13 11.97Q557.91 11.42 558.22 10.42L558.22 10.42L558.92 10.68ZM574.27 13.02L573.10 10.12L568.68 10.12L567.53 13.02L566.79 13.02L570.49 3.78L571.31 3.78L575.01 13.02L574.27 13.02ZM568.95 9.48L572.85 9.48L571.24 5.45L570.91 4.47L570.89 4.47L570.56 5.42L568.95 9.48ZM573.29 0.97L573.29 0.97Q573.19 1.75 572.85 2.13L572.85 2.13L572.85 2.13Q572.52 2.51 571.90 2.51L571.90 2.51L571.90 2.51Q571.51 2.51 571.26 2.37L571.26 2.37L571.26 2.37Q571.02 2.24 570.72 1.97L570.72 1.97L570.72 1.97Q570.50 1.76 570.32 1.66L570.32 1.66L570.32 1.66Q570.15 1.55 569.91 1.55L569.91 1.55L569.91 1.55Q569.53 1.55 569.36 1.79L569.36 1.79L569.36 1.79Q569.18 2.02 569.09 2.52L569.09 2.52L568.53 2.52L568.53 2.52Q568.62 1.74 568.95 1.36L568.95 1.36L568.95 1.36Q569.28 0.98 569.93 0.98L569.93 0.98L569.93 0.98Q570.30 0.98 570.55 1.11L570.55 1.11L570.55 1.11Q570.79 1.25 571.09 1.51L571.09 1.51L571.09 1.51Q571.31 1.72 571.49 1.83L571.49 1.83L571.49 1.83Q571.66 1.93 571.89 1.93L571.89 1.93L571.89 1.93Q572.26 1.93 572.45 1.70L572.45 1.70L572.45 1.70Q572.63 1.47 572.73 0.97L572.73 0.97L573.29 0.97ZM587.16 3.64L587.16 3.64Q588.46 3.64 589.42 4.22L589.42 4.22L589.42 4.22Q590.38 4.80 590.90 5.87L590.90 5.87L590.90 5.87Q591.42 6.94 591.42 8.40L591.42 8.40L591.42 8.40Q591.42 9.86 590.90 10.93L590.90 10.93L590.90 10.93Q590.38 12.00 589.42 12.58L589.42 12.58L589.42 12.58Q588.46 13.16 587.16 13.16L587.16 13.16L587.16 13.16Q585.86 13.16 584.90 12.58L584.90 12.58L584.90 12.58Q583.94 12.00 583.42 10.93L583.42 10.93L583.42 10.93Q582.90 9.86 582.90 8.40L582.90 8.40L582.90 8.40Q582.90 6.94 583.42 5.87L583.42 5.87L583.42 5.87Q583.94 4.80 584.90 4.22L584.90 4.22L584.90 4.22Q585.86 3.64 587.16 3.64L587.16 3.64ZM587.16 4.28L587.16 4.28Q586.08 4.28 585.29 4.78L585.29 4.78L585.29 4.78Q584.50 5.28 584.07 6.21L584.07 6.21L584.07 6.21Q583.65 7.14 583.65 8.40L583.65 8.40L583.65 8.40Q583.65 9.66 584.07 10.59L584.07 10.59L584.07 10.59Q584.50 11.52 585.29 12.02L585.29 12.02L585.29 12.02Q586.08 12.52 587.16 12.52L587.16 12.52L587.16 12.52Q588.24 12.52 589.04 12.02L589.04 12.02L589.04 12.02Q589.83 11.52 590.26 10.59L590.26 10.59L590.26 10.59Q590.69 9.66 590.69 8.40L590.69 8.40L590.69 8.40Q590.69 7.14 590.26 6.21L590.26 6.21L590.26 6.21Q589.83 5.28 589.04 4.78L589.04 4.78L589.04 4.78Q588.24 4.28 587.16 4.28L587.16 4.28ZM612.82 12.38L618.66 12.38L618.66 13.02L612.12 13.02L612.12 3.78L618.44 3.78L618.44 4.42L612.82 4.42L612.82 7.99L617.26 7.99L617.26 8.65L612.82 8.65L612.82 12.38ZM646.02 13.02L645.19 13.02L642.54 9.02L642.50 9.02L639.77 9.02L639.77 13.02L639.07 13.02L639.07 3.78L642.50 3.78L642.50 3.78Q643.89 3.78 644.71 4.48L644.71 4.48L644.71 4.48Q645.53 5.18 645.53 6.40L645.53 6.40L645.53 6.40Q645.53 7.41 644.94 8.07L644.94 8.07L644.94 8.07Q644.35 8.74 643.33 8.93L643.33 8.93L646.02 13.02ZM639.77 4.42L639.77 8.36L642.49 8.36L642.49 8.36Q643.61 8.36 644.20 7.85L644.20 7.85L644.20 7.85Q644.80 7.35 644.80 6.40L644.80 6.40L644.80 6.40Q644.80 5.45 644.20 4.93L644.20 4.93L644.20 4.93Q643.61 4.42 642.49 4.42L642.49 4.42L639.77 4.42ZM655.73 12.38L661.57 12.38L661.57 13.02L655.03 13.02L655.03 3.78L661.35 3.78L661.35 4.42L655.73 4.42L655.73 7.99L660.17 7.99L660.17 8.65L655.73 8.65L655.73 12.38ZM673.46 3.64L673.46 3.64Q676.06 3.64 676.94 5.68L676.94 5.68L676.34 6.17L676.34 6.17Q675.99 5.18 675.30 4.73L675.30 4.73L675.30 4.73Q674.60 4.28 673.47 4.28L673.47 4.28L673.47 4.28Q672.66 4.28 672.06 4.54L672.06 4.54L672.06 4.54Q671.45 4.79 671.14 5.22L671.14 5.22L671.14 5.22Q670.82 5.66 670.82 6.20L670.82 6.20L670.82 6.20Q670.82 6.73 671.09 7.08L671.09 7.08L671.09 7.08Q671.36 7.43 671.99 7.68L671.99 7.68L671.99 7.68Q672.63 7.92 673.75 8.12L673.75 8.12L673.75 8.12Q675.56 8.43 676.31 9.02L676.31 9.02L676.31 9.02Q677.07 9.60 677.07 10.64L677.07 10.64L677.07 10.64Q677.07 11.38 676.63 11.96L676.63 11.96L676.63 11.96Q676.20 12.53 675.41 12.84L675.41 12.84L675.41 12.84Q674.62 13.16 673.60 13.16L673.60 13.16L673.60 13.16Q672.14 13.16 671.14 12.58L671.14 12.58L671.14 12.58Q670.14 12.00 669.77 10.95L669.77 10.95L670.39 10.47L670.39 10.47Q670.67 11.47 671.52 11.99L671.52 11.99L671.52 11.99Q672.36 12.52 673.61 12.52L673.61 12.52L673.61 12.52Q674.81 12.52 675.58 12.03L675.58 12.03L675.58 12.03Q676.34 11.54 676.34 10.68L676.34 10.68L676.34 10.68Q676.34 9.94 675.72 9.51L675.72 9.51L675.72 9.51Q675.09 9.07 673.55 8.81L673.55 8.81L673.55 8.81Q672.25 8.58 671.50 8.26L671.50 8.26L671.50 8.26Q670.74 7.94 670.41 7.46L670.41 7.46L670.41 7.46Q670.08 6.99 670.08 6.27L670.08 6.27L670.08 6.27Q670.08 5.56 670.49 4.96L670.49 4.96L670.49 4.96Q670.91 4.35 671.67 4.00L671.67 4.00L671.67 4.00Q672.43 3.64 673.46 3.64L673.46 3.64ZM689.33 3.78L689.33 3.78Q690.77 3.78 691.62 4.50L691.62 4.50L691.62 4.50Q692.47 5.22 692.47 6.48L692.47 6.48L692.47 6.48Q692.47 7.74 691.62 8.47L691.62 8.47L691.62 8.47Q690.77 9.20 689.33 9.20L689.33 9.20L686.97 9.20L686.97 13.02L686.27 13.02L686.27 3.78L689.33 3.78ZM689.25 8.54L689.25 8.54Q690.45 8.54 691.09 8.01L691.09 8.01L691.09 8.01Q691.73 7.48 691.73 6.48L691.73 6.48L691.73 6.48Q691.73 5.50 691.09 4.96L691.09 4.96L691.09 4.96Q690.45 4.42 689.25 4.42L689.25 4.42L686.97 4.42L686.97 8.54L689.25 8.54ZM702.18 12.38L708.02 12.38L708.02 13.02L701.48 13.02L701.48 3.78L707.80 3.78L707.80 4.42L702.18 4.42L702.18 7.99L706.62 7.99L706.62 8.65L702.18 8.65L702.18 12.38ZM717.75 3.78L717.75 13.02L717.05 13.02L717.05 3.78L717.75 3.78ZM733.96 3.78L733.96 4.42L730.59 4.42L730.59 13.02L729.89 13.02L729.89 4.42L726.52 4.42L726.52 3.78L733.96 3.78ZM745.91 3.64L745.91 3.64Q747.21 3.64 748.17 4.22L748.17 4.22L748.17 4.22Q749.13 4.80 749.64 5.87L749.64 5.87L749.64 5.87Q750.16 6.94 750.16 8.40L750.16 8.40L750.16 8.40Q750.16 9.86 749.64 10.93L749.64 10.93L749.64 10.93Q749.13 12.00 748.17 12.58L748.17 12.58L748.17 12.58Q747.21 13.16 745.91 13.16L745.91 13.16L745.91 13.16Q744.60 13.16 743.64 12.58L743.64 12.58L743.64 12.58Q742.69 12.00 742.17 10.93L742.17 10.93L742.17 10.93Q741.65 9.86 741.65 8.40L741.65 8.40L741.65 8.40Q741.65 6.94 742.17 5.87L742.17 5.87L742.17 5.87Q742.69 4.80 743.64 4.22L743.64 4.22L743.64 4.22Q744.60 3.64 745.91 3.64L745.91 3.64ZM745.91 4.28L745.91 4.28Q744.83 4.28 744.04 4.78L744.04 4.78L744.04 4.78Q743.25 5.28 742.82 6.21L742.82 6.21L742.82 6.21Q742.39 7.14 742.39 8.40L742.39 8.40L742.39 8.40Q742.39 9.66 742.82 10.59L742.82 10.59L742.82 10.59Q743.25 11.52 744.04 12.02L744.04 12.02L744.04 12.02Q744.83 12.52 745.91 12.52L745.91 12.52L745.91 12.52Q746.98 12.52 747.78 12.02L747.78 12.02L747.78 12.02Q748.58 11.52 749.01 10.59L749.01 10.59L749.01 10.59Q749.43 9.66 749.43 8.40L749.43 8.40L749.43 8.40Q749.43 7.14 749.01 6.21L749.01 6.21L749.01 6.21Q748.58 5.28 747.78 4.78L747.78 4.78L747.78 4.78Q746.98 4.28 745.91 4.28L745.91 4.28ZM760.00 3.78L760.00 8.26L759.92 10.36L759.36 10.36L759.28 8.26L759.28 3.78L760.00 3.78ZM759.64 11.87L759.64 11.87Q759.92 11.87 760.09 12.05L760.09 12.05L760.09 12.05Q760.27 12.22 760.27 12.50L760.27 12.50L760.27 12.50Q760.27 12.78 760.09 12.96L760.09 12.96L760.09 12.96Q759.92 13.13 759.64 13.13L759.64 13.13L759.64 13.13Q759.36 13.13 759.18 12.96L759.18 12.96L759.18 12.96Q759.01 12.78 759.01 12.50L759.01 12.50L759.01 12.50Q759.01 12.22 759.18 12.05L759.18 12.05L759.18 12.05Q759.36 11.87 759.64 11.87L759.64 11.87Z"></path></g></svg>